<?xml version="1.0" standalone="no"?>
<!DOCTYPE svg PUBLIC "-//W3C//DTD SVG 20010904//EN"
 "http://www.w3.org/TR/2001/REC-SVG-20010904/DTD/svg10.dtd">
<svg version="1.0" xmlns="http://www.w3.org/2000/svg"
 width="380.000000pt" height="380.000000pt" viewBox="0 0 380.000000 380.000000"
 preserveAspectRatio="xMidYMid meet">
<metadata>
Created by potrace 1.11, written by Peter Selinger 2001-2013
</metadata>
<g transform="translate(0.000000,380.000000) scale(0.100000,-0.100000)"
fill="#000000" stroke="none">
<path d="M880 3793 c-228 -34 -421 -128 -578 -284 -68 -66 -142 -159 -142
-177 0 -5 -3 -12 -8 -14 -14 -6 -70 -123 -95 -198 -30 -90 -36 -114 -44 -188
-10 -82 -9 -2005 1 -2082 8 -67 59 -235 78 -257 6 -7 8 -13 4 -13 -3 0 15 -35
40 -77 46 -78 116 -168 163 -211 14 -13 41 -37 59 -54 77 -69 235 -157 338
-188 138 -41 111 -40 1207 -39 1148 1 1092 -2 1251 58 102 38 219 107 291 172
17 15 39 36 51 46 36 32 144 166 144 179 0 7 4 14 9 16 30 11 121 251 138 363
4 28 8 514 8 1080 l0 1030 -23 80 c-34 119 -104 281 -131 305 -3 3 -21 28 -40
55 -32 46 -124 143 -181 190 -73 59 -203 129 -306 164 -149 50 -150 50 -1214
49 -547 -1 -1006 -3 -1020 -5z m1898 -397 c277 -63 500 -242 612 -490 75 -169
76 -179 75 -1056 -1 -759 -2 -766 -24 -853 -12 -48 -33 -112 -46 -141 -22 -50
-82 -155 -95 -166 -3 -3 -24 -27 -45 -54 -79 -98 -237 -206 -365 -249 -144
-49 -158 -49 -955 -49 -773 1 -828 3 -941 42 -32 12 -68 24 -79 27 -11 3 -55
27 -99 52 -136 80 -258 208 -329 346 -17 33 -32 65 -33 70 -2 6 -12 36 -23 68
-11 31 -24 76 -28 100 -4 23 -8 407 -8 852 l0 810 24 75 c12 41 34 99 48 129
124 274 402 473 692 498 36 3 67 6 68 7 1 0 335 0 742 -1 625 -1 752 -4 809
-17z"/>
<path d="M1175 3189 c-238 -29 -436 -184 -525 -409 -10 -25 -21 -62 -24 -80
-3 -19 -8 -46 -11 -60 -8 -35 -8 -1497 0 -1540 50 -280 254 -486 529 -533 54
-9 256 -11 792 -10 844 3 733 1 819 20 164 37 328 161 413 313 28 51 62 152
70 207 3 26 6 386 6 798 0 671 -2 757 -17 813 -50 188 -171 336 -344 421 -126
63 -125 63 -928 64 -401 1 -753 -1 -780 -4z m1659 -343 c49 -20 80 -70 80
-128 0 -51 -19 -86 -67 -122 -59 -44 -167 -12 -201 58 -21 45 -20 81 4 131 32
67 109 92 184 61z m-749 -269 c329 -81 549 -290 632 -601 26 -98 25 -273 -2
-379 -73 -289 -294 -513 -580 -588 -113 -30 -291 -30 -397 -1 -236 66 -420
215 -526 427 -72 145 -98 363 -62 525 70 308 319 550 633 614 57 12 259 14
302 3z"/>
<path d="M1780 2346 c-183 -53 -326 -182 -389 -352 -28 -74 -32 -97 -36 -190
-7 -164 52 -313 169 -429 115 -113 239 -167 396 -170 164 -4 306 52 419 163
168 166 213 358 147 615 -26 97 -165 258 -273 315 -134 70 -295 88 -433 48z"/>
</g>
</svg>
